<?xml version="1.0" encoding="utf-8"?>
<!-- Generator: Adobe Illustrator 27.4.0, SVG Export Plug-In . SVG Version: 6.00 Build 0)  -->
<svg version="1.1" xmlns="http://www.w3.org/2000/svg" xmlns:xlink="http://www.w3.org/1999/xlink" x="0px" y="0px"
	 viewBox="0 0 703 105.5" style="enable-background:new 0 0 703 186;"  xml:space="preserve">
<style type="text/css">
	.st0{fill:url(#SVGID_1_);}
	.st1{fill:url(#SVGID_00000028305652741722613080000005472531994209804184_);}
	.st2{fill:url(#SVGID_00000053532848892891271650000001040958688807572104_);}
	.st3{fill:url(#SVGID_00000011727445960846609660000011373659256752331654_);}
	.st4{fill:url(#SVGID_00000150793469597354006690000006458055064430276767_);}
	.st5{fill:url(#SVGID_00000094617800134432852450000012044907410107391145_);}
	.st6{fill:url(#SVGID_00000152971880435627443790000014879093409483863985_);}
	.st7{fill:url(#SVGID_00000147204486506145537410000002438309019116649627_);}
	.st8{fill:url(#SVGID_00000036217601734438449470000014581436978211867028_);}
	.st9{fill:url(#SVGID_00000047040269318646468600000013009465751607892660_);}
	.st10{fill:url(#SVGID_00000117642100875232005140000002186700035982734757_);}
</style>
<g id="Layer_2">
</g>
<g id="Layer_1" style="transform: translate(-105px, -40px);">
	<linearGradient id="SVGID_1_" gradientUnits="userSpaceOnUse" x1="105.4967" y1="92.7331" x2="210.8591" y2="92.7331">
		<stop  offset="0" style="stop-color:#262261"/>
		<stop  offset="1" style="stop-color:#2C4D9B"/>
		<stop  offset="1" style="stop-color:#000000"/>
	</linearGradient>
	<path class="st0" d="M184.38,123.99h-53.04h-25.64c-0.36-0.03-0.15-0.41-0.15-0.41s41.64-61.92,41.65-62.02
		c0.01-0.1,0.17-0.09,0.17-0.09H169c0,0,41.71,61.98,41.74,62.02c0.13,0.2,0.22,0.49-0.14,0.49
		C210.49,123.98,184.38,123.99,184.38,123.99z M157.95,79.34l-17.69,28.07l-0.03,0.04l34.91,0L157.95,79.34z"/>
	
		<linearGradient id="SVGID_00000096779694810553728840000018078318502067171456_" gradientUnits="userSpaceOnUse" x1="607.807" y1="92.7331" x2="713.1694" y2="92.7331">
		<stop  offset="0" style="stop-color:#262261"/>
		<stop  offset="1" style="stop-color:#2C4D9B"/>
		<stop  offset="1" style="stop-color:#000000"/>
	</linearGradient>
	<path style="fill:url(#SVGID_00000096779694810553728840000018078318502067171456_);" d="M686.69,123.99h-53.04h-25.64
		c-0.36-0.03-0.15-0.41-0.15-0.41s41.64-61.92,41.65-62.02s0.17-0.09,0.17-0.09h21.62c0,0,41.71,61.98,41.74,62.02
		c0.13,0.2,0.22,0.49-0.14,0.49C712.8,123.98,686.69,123.99,686.69,123.99z M660.26,79.34l-17.69,28.07l-0.03,0.04l34.91,0
		L660.26,79.34z"/>
	
		<linearGradient id="SVGID_00000057110434923620196000000013583170041959272084_" gradientUnits="userSpaceOnUse" x1="293.8843" y1="92.9635" x2="380.1621" y2="92.9635">
		<stop  offset="0" style="stop-color:#262261"/>
		<stop  offset="1" style="stop-color:#2C4D9B"/>
		<stop  offset="1" style="stop-color:#000000"/>
	</linearGradient>
	<path style="fill:url(#SVGID_00000057110434923620196000000013583170041959272084_);" d="M348.95,78.05v45.95h-23.6V78.05h-31.46
		V61.93h86.28v16.11H348.95z"/>
	
		<linearGradient id="SVGID_00000041296288609663856180000012915371539264778382_" gradientUnits="userSpaceOnUse" x1="525.5786" y1="92.9635" x2="607.1605" y2="92.9635">
		<stop  offset="0" style="stop-color:#262261"/>
		<stop  offset="1" style="stop-color:#2C4D9B"/>
		<stop  offset="1" style="stop-color:#000000"/>
	</linearGradient>
	<path style="fill:url(#SVGID_00000041296288609663856180000012915371539264778382_);" d="M564.25,125.65
		c-14.46,0-27.07-1.29-38.67-4.97l9-13.29c8.35,2.35,18.05,3.8,29.68,3.8c15.75,0,21.36-1.93,21.36-5.25
		c0-3.31-4.88-4.14-20.44-5.34c-26.8-1.93-39.5-6.26-39.5-20.35c0-13.44,17.4-19.98,43-19.98c12.7,0,26.53,1.13,35.75,4.48
		c0.27,0.1-8.92,13.33-8.92,13.33c-7.67-2.19-16.98-3.26-26.82-3.26c-14.92,0-20.9,1.2-20.9,4.05s4.05,3.96,18.42,5.06
		c27.35,1.93,40.97,4.79,40.97,19.61C607.16,119.94,588.65,125.65,564.25,125.65z"/>
	
		<linearGradient id="SVGID_00000090996969333432973150000003492712551970856877_" gradientUnits="userSpaceOnUse" x1="722.9773" y1="92.9635" x2="807.876" y2="92.9635">
		<stop  offset="0" style="stop-color:#262261"/>
		<stop  offset="1" style="stop-color:#2C4D9B"/>
		<stop  offset="1" style="stop-color:#000000"/>
	</linearGradient>
	<path style="fill:url(#SVGID_00000090996969333432973150000003492712551970856877_);" d="M779.51,123.99l-19.24-21.73h-16.02v21.73
		h-21.27V61.93h59.21c12.34,0,23.11,6.17,23.11,19.52c0,11.6-8.47,18.14-18.6,19.15h-1.93l23.11,23.39H779.51z M777.12,76.57h-32.87
		v11.79h33.33c4.24,0,7-2.03,7-6.08C784.58,78.78,781.63,76.57,777.12,76.57z"/>
	
		<linearGradient id="SVGID_00000115496598233480257100000006979241500720669875_" gradientUnits="userSpaceOnUse" x1="210.4419" y1="93.6813" x2="284.0782" y2="93.6813">
		<stop  offset="0" style="stop-color:#262261"/>
		<stop  offset="1" style="stop-color:#2C4D9B"/>
		<stop  offset="1" style="stop-color:#000000"/>
	</linearGradient>
	<path style="fill:url(#SVGID_00000115496598233480257100000006979241500720669875_);" d="M284.08,61.71v63.69h-21.32
		c-2.61,0.23-7.04,0.25-9.5,0.25c-17.86,0-42.82-5.52-42.82-27.07V61.93h21.27v34.53c0,8.38,7.27,14.46,21.55,14.46
		c2.82,0,7.24-0.25,9.5-0.69V61.71H284.08z"/>
	<g>
		
			<linearGradient id="SVGID_00000141423514382169847000000002121943216004712622_" gradientUnits="userSpaceOnUse" x1="412.4315" y1="93.1479" x2="487.8947" y2="93.1479">
			<stop  offset="0" style="stop-color:#BE1E2D"/>
			<stop  offset="0.3143" style="stop-color:#EC1C24"/>
			<stop  offset="1" style="stop-color:#EF4438"/>
		</linearGradient>
		<path style="fill:url(#SVGID_00000141423514382169847000000002121943216004712622_);" d="M487.86,89.79
			c-0.88-9.9-18.47-16.42-39.29-14.57c-20.82,1.85-36.98,11.38-36.1,21.28c0.88,9.9,18.47,16.42,39.29,14.57
			C472.58,109.22,488.74,99.69,487.86,89.79z M450.07,101.02c-11.95,1.36-22.05-1.12-22.56-5.55c-0.51-4.43,8.78-9.13,20.73-10.49
			c11.95-1.36,22.05,1.12,22.56,5.55C471.3,94.96,462.02,99.66,450.07,101.02z"/>
		
			<linearGradient id="SVGID_00000003068662533734969520000002350752298880635045_" gradientUnits="userSpaceOnUse" x1="383.2225" y1="77.1718" x2="505.9545" y2="77.1718">
			<stop  offset="0" style="stop-color:#BE1E2D"/>
			<stop  offset="0.3143" style="stop-color:#EC1C24"/>
			<stop  offset="1" style="stop-color:#EF4438"/>
		</linearGradient>
		<path style="fill:url(#SVGID_00000003068662533734969520000002350752298880635045_);" d="M391.79,93.45
			c2.8-13.82,26.7-25.95,56.52-27.95c19.4-1.3,36.87,2,48,8.12l9.64-2.66c-12.43-8.8-33.9-12.98-58.04-11.36
			c-35.28,2.36-63.26,17.96-64.69,35.47L391.79,93.45z"/>
		
			<linearGradient id="SVGID_00000026850579230715516810000017712542992568665248_" gradientUnits="userSpaceOnUse" x1="387.1139" y1="104.7062" x2="403.7684" y2="104.7062">
			<stop  offset="0" style="stop-color:#262261"/>
			<stop  offset="1" style="stop-color:#2C4D9B"/>
			<stop  offset="1" style="stop-color:#000000"/>
		</linearGradient>
		<path style="fill:url(#SVGID_00000026850579230715516810000017712542992568665248_);" d="M388.5,97.76l-1.39,13.86
			c0,0.02,0.01,0.05,0.03,0.05l16.61-4.07c0.03-0.01,0.02-0.04-0.01-0.06L388.5,97.76C388.49,97.75,388.51,97.74,388.5,97.76z"/>
		
			<linearGradient id="SVGID_00000132082526219349458040000010563718665495468189_" gradientUnits="userSpaceOnUse" x1="497.3839" y1="80.8953" x2="513.1816" y2="80.8953">
			<stop  offset="0" style="stop-color:#262261"/>
			<stop  offset="1" style="stop-color:#2C4D9B"/>
			<stop  offset="1" style="stop-color:#000000"/>
		</linearGradient>
		<path style="fill:url(#SVGID_00000132082526219349458040000010563718665495468189_);" d="M512.56,87.02l0.62-12.22
			c0-0.02-0.01-0.04-0.03-0.04l-15.75,4.43c-0.02,0.01-0.01,0.04,0.02,0.05L512.56,87.02C512.57,87.02,512.56,87.03,512.56,87.02z"
			/>
		
			<linearGradient id="SVGID_00000067227925815771846590000005449160259509745850_" gradientUnits="userSpaceOnUse" x1="394.2582" y1="108.4404" x2="517.164" y2="108.4404">
			<stop  offset="0" style="stop-color:#BE1E2D"/>
			<stop  offset="0.3143" style="stop-color:#EC1C24"/>
			<stop  offset="1" style="stop-color:#EF4438"/>
		</linearGradient>
		<path style="fill:url(#SVGID_00000067227925815771846590000005449160259509745850_);" d="M508.62,92.29
			c-2.32,14.02-26.44,26.42-56.61,28.44c-19.28,1.29-36.67-1.95-47.81-8l-9.95,2.2c12.27,8.91,33.68,13.4,58.15,11.76
			c36.19-2.42,64.7-18.77,64.75-36.83L508.62,92.29z"/>
	</g>
</g>
</svg>
